<?xml version="1.0" standalone="no"?>
<!DOCTYPE svg PUBLIC "-//W3C//DTD SVG 1.1//EN" "http://www.w3.org/Graphics/SVG/1.1/DTD/svg11.dtd" >
<svg xmlns="http://www.w3.org/2000/svg">
<metadata>
<json>
<![CDATA[
{
	"fontFamily": "ireact-icons-v3",
	"majorVersion": 1,
	"minorVersion": 0,
	"version": "Version 1.0",
	"fontId": "ireact-icons-v3",
	"psName": "ireact-icons-v3",
	"subFamily": "Regular",
	"fullName": "ireact-icons-v3",
	"description": "Font generated by IcoMoon."
}
]]>
</json>
</metadata>
<defs>
<font id="ireact-icons-v3" horiz-adv-x="1024">
<font-face units-per-em="1024" ascent="960" descent="-64" />
<missing-glyph horiz-adv-x="1024" />
<glyph unicode="&#x20;" horiz-adv-x="512" d="" />
<glyph unicode="&#xe900;" glyph-name="Damage_bridge" data-tags="Damage_bridge" horiz-adv-x="987" d="M992.97 530.23v27.927c-133.43 0-251.345 60.509-347.539 179.976-40.339 49.648-68.267 99.297-85.333 133.43v48.097h-20.17c0 0 0 0 0 0h-89.988c0 0 0 0 0 0h-18.618v-41.891c-46.545-94.642-181.527-319.612-434.424-319.612v-27.927c21.721 0 41.891 1.552 62.061 4.655v-178.424h-58.958v-155.152h46.545c49.648 0 89.988-40.339 89.988-89.988v-77.576c4.655-3.103 9.309-6.206 15.515-6.206 20.17 0 20.17 18.618 40.339 18.618s20.17-18.618 40.339-18.618c15.515 0 18.618 10.861 27.927 15.515v66.715c0 49.648 40.339 91.539 91.539 91.539h257.552c49.648 0 91.539-40.339 91.539-91.539v-82.23c18.618 1.552 18.618 18.618 38.788 18.618s20.17-18.618 40.339-18.618c20.17 0 20.17 18.618 40.339 18.618 1.552 0 4.655 0 6.206 0v66.715c0 49.648 40.339 89.988 89.988 89.988h77.576v155.152h-68.267v176.873c20.17-3.103 43.442-4.655 66.715-4.655zM431.321 815.709v-459.248h-76.024v350.642c3.103 4.655 7.758 9.309 10.861 13.964 27.927 32.582 49.648 65.164 65.164 94.642zM102.4 356.461v186.182c27.927 6.206 54.303 17.067 80.679 29.479v-215.661h-80.679zM226.521 356.461v237.382c29.479 18.618 58.958 40.339 86.885 66.715v-305.648h-86.885zM561.648 356.461v454.594c15.515-27.927 37.236-58.958 62.061-89.988 3.103-4.655 7.758-9.309 10.861-13.964v-350.642h-72.921zM678.012 356.461v304.097c27.927-26.376 55.855-48.097 86.885-66.715v-238.933h-86.885zM879.709 356.461h-72.921v214.109c23.273-10.861 48.097-20.17 72.921-26.376v-187.733z" />
<glyph unicode="&#xe901;" glyph-name="Damage_farm" data-tags="Damage_farm" d="M128 405.333c0-212.077 171.923-384 384-384v0c0 213.333-171.947 384-384 384zM512 725.333c58.91 0 106.667-47.756 106.667-106.667v0c0-58.91-47.756-106.667-106.667-106.667v0c-58.91 0-106.667 47.756-106.667 106.667v0c0 58.91 47.756 106.667 106.667 106.667v0zM238.933 522.667c0-58.91 47.756-106.667 106.667-106.667v0c22.613 0 43.52 7.253 59.733 18.773 0-2.56 0-5.12 0-8.107 0-58.91 47.756-106.667 106.667-106.667v0c58.91 0 106.667 47.756 106.667 106.667v0c0 2.987 0 5.547 0 8.107 16.213-11.52 37.12-18.773 59.733-18.773 58.88 0 106.667 47.787 106.667 106.667 0 42.667-25.173 78.933-61.013 96 35.84 17.067 61.013 53.76 61.013 96 0 58.88-47.787 106.667-106.667 106.667-22.613 0-43.52-6.827-59.733-18.773 0 2.56 0 5.547 0 8.107 0 58.91-47.756 106.667-106.667 106.667v0c-58.91 0-106.667-47.756-106.667-106.667v0c0-2.56 0-5.547 0-8.107-16.213 11.947-37.12 18.773-59.733 18.773-58.91 0-106.667-47.756-106.667-106.667v0c0-42.24 25.173-78.933 61.013-96-35.84-17.067-61.013-53.333-61.013-96zM512 21.333c212.077 0 384 171.923 384 384v0c-213.333 0-384-170.667-384-384z" />
<glyph unicode="&#xe902;" glyph-name="Damage_hospital" data-tags="Damage_hospital" d="M1024 590.739h-369.261v369.261h-285.479v-369.261h-369.261v-285.479h369.261v-369.261h285.479v369.261h369.261z" />
<glyph unicode="&#xe903;" glyph-name="Damage_mall" data-tags="Damage_mall" d="M725.333 192c-47.36 0-85.333-37.973-85.333-85.333 0-47.128 38.205-85.333 85.333-85.333v0c47.128 0 85.333 38.205 85.333 85.333v0c0 47.36-38.4 85.333-85.333 85.333zM42.667 874.667v-85.333h85.333l153.6-323.84-58.027-104.533c-6.4-11.947-10.24-26.027-10.24-40.96 0-47.128 38.205-85.333 85.333-85.333v0h512v85.333h-494.080c-5.891 0-10.667 4.776-10.667 10.667v0c0 2.133 0.427 3.84 1.28 5.12l38.4 69.547h317.867c32 0 60.16 17.92 74.667 43.947l152.747 276.053c2.987 6.827 5.12 14.080 5.12 21.333 0 23.564-19.103 42.667-42.667 42.667v0h-631.040l-40.107 85.333zM298.667 192c-47.36 0-85.333-37.973-85.333-85.333 0-47.128 38.205-85.333 85.333-85.333v0c47.128 0 85.333 38.205 85.333 85.333v0c0 47.36-38.4 85.333-85.333 85.333z" />
<glyph unicode="&#xe904;" glyph-name="Damage_menu" data-tags="Damage_menu" d="M375.467 288.194c-1.552 1.552-1.552 4.655 0 6.206l136.533 136.533c4.655 4.655 7.758 10.861 7.758 17.067s-3.103 12.412-7.758 17.067l-145.842 145.842c-1.552 1.552-1.552 3.103-1.552 3.103 0 1.552 0 1.552 1.552 3.103l127.224 127.224c9.309 9.309 9.309 24.824 0 35.685l-164.461 164.461c-4.655 4.655-10.861 7.758-17.067 7.758-172.218 0-310.303-139.636-310.303-310.303v-383.224c0-172.218 139.636-310.303 310.303-310.303h215.661c13.964 0 24.824 10.861 24.824 24.824v128.776c0 6.206-3.103 12.412-7.758 17.067l-169.115 169.115zM716.8 952.242h-234.279c-10.861 0-18.618-6.206-23.273-15.515-3.103-9.309-1.552-20.17 4.655-27.927l142.739-142.739c1.552-1.552 1.552-3.103 1.552-3.103 0-1.552 0-1.552-1.552-3.103l-125.673-125.673c-9.309-9.309-9.309-24.824 0-35.685l145.842-145.842c1.552-1.552 1.552-4.655 0-6.206l-136.533-138.085c-9.309-9.309-9.309-24.824 0-35.685l156.703-156.703c1.552-1.552 1.552-1.552 1.552-3.103v-141.188c0-13.964 10.861-24.824 24.824-24.824h43.442c172.218 0 310.303 139.636 310.303 310.303v384.776c1.552 170.667-138.085 310.303-310.303 310.303z" />
<glyph unicode="&#xe905;" glyph-name="Damage_more" data-tags="Damage_more" d="M513.552 960c-282.376 0-512-229.624-512-512s229.624-512 512-512c282.376 0 512 229.624 512 512s-229.624 512-512 512zM699.733 409.212h-145.842v-145.842h-74.473v145.842h-145.842v74.473h145.842v145.842h74.473v-145.842h145.842v-74.473z" />
<glyph unicode="&#xe906;" glyph-name="Damage_park" data-tags="Damage_park" d="M462.352 348.703h451.491v-63.612h-451.491v63.612zM462.352 438.691h451.491v-63.612h-451.491v63.612zM983.661 120.63v228.073h-37.236v-86.885h-516.655v86.885h-37.236v-228.073h-176.873v72.921l105.503 209.455c121.018 24.824 212.558 131.879 212.558 260.655 0 147.394-119.467 266.861-266.861 266.861s-266.861-119.467-266.861-266.861c0-114.812 72.921-212.558 175.321-249.794v-291.685h-175.321v-186.182h1024v184.63h-40.339zM215.661 401.455c17.067-3.103 34.133-4.655 51.2-4.655 4.655 0 7.758 0 12.412 0l-63.612-127.224v131.879zM462.352 120.63h-32.582v103.952h32.582v-103.952zM878.158 120.63h-378.57v103.952h378.57v-103.952zM946.424 120.63h-32.582v103.952h32.582v-103.952z" />
<glyph unicode="&#xe907;" glyph-name="Damage_Power-network" data-tags="Damage_Power network" d="M307.2 669.867v32.582l206.352-111.709v-31.030zM512 669.867v32.582l-206.352-111.709v-31.030zM307.2 852.945v31.030l206.352-110.158v-32.582zM512 852.945v31.030l-206.352-110.158v-32.582zM256 441.794l1.552 26.376 293.236-158.255-1.552-26.376zM549.236 438.691v29.479l-293.236-158.255v-27.927zM248.242 247.855v49.648l325.818-173.77v-49.648zM570.958 247.855v49.648l-325.818-173.77v-49.648zM480.97 921.212h74.473v-547.685h-74.473v547.685zM254.448 921.212h74.473v-547.685h-74.473v547.685zM664.048-56.242h-74.473l-108.606 429.77h76.024zM145.842-56.242h76.024l107.055 429.77h-74.473zM778.66 748.64h-735.418v58.958h735.418v-58.958zM747.798 807.106h-68.267v29.479h68.267v-29.479zM729.18 719.652h-32.582v29.479h32.582v-29.479zM130.316 719.652h-32.582v29.479h32.582v-29.479zM146.907 807.106h-68.267v29.479h68.267v-29.479zM778.66 454.498h-735.418v58.958h735.418v-58.958zM747.798 512.965h-68.267v29.479h68.267v-29.479zM729.18 423.959h-32.582v29.479h32.582v-29.479zM130.316 423.959h-32.582v29.479h32.582v-29.479zM146.907 512.965h-68.267v29.479h68.267v-29.479zM237.382 939.83h335.127v-62.061h-335.127v62.061zM1024 249.406h-204.8c-62.061 0-113.261 51.2-113.261 113.261v65.164h18.618v-65.164c0-52.752 41.891-94.642 94.642-94.642h204.8v-18.618zM1024 550.4h-204.8c-62.061 0-113.261 51.2-113.261 113.261v65.164h18.618v-65.164c0-52.752 41.891-94.642 94.642-94.642h204.8v-18.618z" />
<glyph unicode="&#xe908;" glyph-name="Damage_private_house" data-tags="Damage_private_house" d="M665.6 482.133v318.061l-158.255 159.806-159.806-159.806v-105.503h-318.061v-743.176h955.733v530.618h-319.612zM242.036 57.018h-107.055v105.503h105.503v-105.503zM242.036 269.576h-107.055v105.503h105.503v-105.503zM242.036 482.133h-107.055v105.503h105.503v-105.503zM560.097 57.018h-105.503v105.503h105.503v-105.503zM560.097 269.576h-105.503v105.503h105.503v-105.503zM560.097 482.133h-105.503v105.503h105.503v-105.503zM560.097 694.691h-105.503v105.503h105.503v-105.503zM878.158 57.018h-105.503v105.503h105.503v-105.503zM878.158 269.576h-105.503v105.503h105.503v-105.503z" />
<glyph unicode="&#xe909;" glyph-name="Damage_road" data-tags="Damage_road" d="M0 960h1024v-161.358h-1024v161.358zM0 106.667h1024v-170.667h-1024v170.667zM0 480.582h183.079v-83.782h-183.079v83.782zM280.824 480.582h183.079v-83.782h-183.079v83.782zM560.097 480.582h183.079v-83.782h-183.079v83.782zM840.921 480.582h183.079v-83.782h-183.079v83.782z" />
<glyph unicode="&#xe90a;" glyph-name="Damage_school" data-tags="Damage_school" d="M1025.552 4.267v49.648h-43.442v496.485h-259.103v89.988l46.545-44.994 7.758 7.758-254.448 249.794v91.539h-10.861v-91.539l-251.345-251.345 7.758-7.758 52.752 52.752v-96.194h-279.273v-496.485h-43.442v-49.648h321.164v-17.067h-34.133v-51.2h463.903v49.648h-26.376v17.067h302.545zM861.091 511.612h86.885v-86.885h-86.885v86.885zM861.091 404.558h86.885v-86.885h-86.885v86.885zM744.727 511.612h86.885v-86.885h-86.885v86.885zM744.727 404.558h86.885v-86.885h-86.885v86.885zM162.909 317.673h-86.885v86.885h86.885v-86.885zM162.909 424.727h-86.885v86.885h86.885v-86.885zM279.273 317.673h-86.885v86.885h86.885v-86.885zM279.273 424.727h-86.885v86.885h86.885v-86.885zM564.752-22.109h-99.297v148.945c0 27.927 21.721 49.648 49.648 49.648s49.648-21.721 49.648-49.648v-148.945zM516.655 641.939c-31.030 0-55.855 24.824-55.855 55.855s24.824 55.855 55.855 55.855c31.030 0 55.855-24.824 55.855-55.855s-24.824-55.855-55.855-55.855zM553.891 702.448h-29.479v15.515c0 4.655-3.103 7.758-7.758 7.758s-7.758-3.103-7.758-7.758v-21.721c0 0 0-1.552 0-1.552 0-4.655 3.103-7.758 7.758-7.758h37.236c4.655 0 7.758 3.103 7.758 7.758s-3.103 7.758-7.758 7.758zM530.618 944.485h107.055v-62.061h-107.055v62.061z" />
<glyph unicode="&#xe90b;" glyph-name="Damage_underpass" data-tags="Damage_underpass" d="M991.418-11.248l-152.048 328.921v127.224c0 173.77-139.636 313.406-313.406 313.406h-27.927c-173.77 0-313.406-139.636-313.406-313.406v-134.982l-152.048-322.715c-4.655-7.758-17.067-4.655-17.067 4.655v454.594c0 265.309 215.661 482.521 482.521 482.521h27.927c266.861 0 482.521-217.212 482.521-482.521v-453.042c0-10.861-13.964-13.964-17.067-4.655zM716.8 351.806h-172.218l9.309-102.4h-77.576l15.515 102.4h-186.182c-9.309 0-17.067-4.655-20.17-12.412l-131.879-313.406c-4.655-9.309 3.103-20.17 12.412-20.17h690.424c10.861 0 17.067 10.861 12.412 20.17l-131.879 313.406c-3.103 7.758-10.861 12.412-20.17 12.412zM443.733 64.776l24.824 127.224h88.436l15.515-127.224h-128.776z" />
<glyph unicode="&#xe90c;" glyph-name="Damage_water-suply" data-tags="Damage_water suply" d="M800.582 491.442h-704.388v-170.667h690.424c38.788 0 71.37-31.030 71.37-71.37v-139.636h150.497v173.77c0 114.812-93.091 207.903-207.903 207.903v0zM1008.485 75.636h-156.703c-7.758 0-15.515 6.206-15.515 15.515v4.655c0 7.758 6.206 15.515 15.515 15.515h156.703c7.758 0 15.515-6.206 15.515-15.515v-4.655c0-9.309-6.206-15.515-15.515-15.515zM719.903 392.145c0-116.535-94.471-211.006-211.006-211.006s-211.006 94.471-211.006 211.006c0 116.535 94.471 211.006 211.006 211.006s211.006-94.471 211.006-211.006zM408.048 635.733h207.903c15.515 0 29.479-12.412 29.479-29.479v0c0-15.515-12.412-29.479-29.479-29.479h-207.903c-15.515 0-29.479 12.412-29.479 29.479v0c0 15.515 13.964 29.479 29.479 29.479zM448.388 727.273h127.224v-93.091h-127.224v93.091zM304.097 803.297h415.806c24.824 0 46.545-20.17 46.545-46.545v0c0-24.824-20.17-46.545-46.545-46.545h-415.806c-24.824 0-46.545 20.17-46.545 46.545v0c0 24.824 20.17 46.545 46.545 46.545zM3.103 548.848h190.836v-456.145h-190.836v456.145z" />
<glyph unicode="&#xe90d;" glyph-name="H_avalanche" data-tags="H_avalanche" horiz-adv-x="987" d="M608.194 679.176l-15.515 20.17-51.2-15.515-40.339 20.17 40.339 20.17 51.2-13.964 6.206 27.927-27.927 4.655 31.030 18.618-13.964 24.824-31.030-18.618 10.861 26.376-26.376 9.309-13.964-52.752-35.685-20.17v40.339l38.788 37.236-20.17 18.618-18.618-21.721v35.685h-27.927v-35.685l-17.067 21.721-20.17-18.618 38.788-37.236v-40.339l-35.685 20.17-13.964 51.2-26.376-9.309 10.861-26.376-31.030 18.618-13.964-24.824 31.030-18.618-27.927-4.655 6.206-27.927 51.2 15.515 40.339-20.17-40.339-20.17-51.2 15.515-6.206-27.927 27.927-4.655-31.030-18.618 13.964-24.824 31.030 18.618-10.861-26.376 26.376-9.309 12.412 52.752 35.685 20.17v-40.339l-37.236-35.685 20.17-18.618 17.067 21.721v-35.685h27.927v35.685l17.067-21.721 10.861-4.655 10.861 23.273-38.788 37.236v40.339l35.685-20.17 12.412-52.752 26.376 9.309-10.861 26.376 31.030-18.618 13.964 24.824-31.030 18.618 27.927 4.655 10.861 6.206zM834.715 451.103l-15.515 20.17-51.2-15.515-38.788 21.721 40.339 20.17 51.2-13.964 6.206 27.927-27.927 4.655 31.030 18.618-13.964 24.824-31.030-18.618 10.861 26.376-26.376 9.309-12.412-52.752-35.685-20.17v40.339l38.788 37.236-20.17 18.618-17.067-21.721v37.236h-27.927v-37.236l-17.067 21.721-20.17-18.618 38.788-37.236v-40.339l-35.685 20.17-13.964 51.2-26.376-9.309 10.861-26.376-31.030 18.618-13.964-24.824 31.030-18.618-27.927-4.655 6.206-27.927 51.2 15.515 40.339-20.17-40.339-20.17-51.2 15.515-6.206-27.927 27.927-4.655-31.030-18.618 13.964-24.824 31.030 18.618-10.861-26.376 26.376-9.309 12.412 52.752 35.685 20.17v-40.339l-38.788-37.236 20.17-18.618 17.067 21.721v-35.685h27.927v35.685l17.067-21.721 10.861-4.655 10.861 23.273-38.788 37.236v40.339l35.685-20.17 12.412-52.752 26.376 9.309-10.861 26.376 31.030-18.618 13.964 24.824-31.030 18.618 27.927 4.655 7.758 6.206zM975.903-50.036h-965.042v965.042z" />
<glyph unicode="&#xe90e;" glyph-name="H_drought_twitter" data-tags="H_drought_twitter" horiz-adv-x="987" d="M220.315 103.564c57.406-97.745 159.806-162.909 277.721-162.909 179.976 0 325.818 153.6 325.818 342.885 0 54.303-26.376 131.879-63.612 214.109l-539.927-394.085zM844.024 710.206l-139.636-102.4c-94.642 178.424-209.455 349.091-207.903 349.091 3.103 0-325.818-484.073-325.818-673.358 0-21.721 1.552-41.891 6.206-62.061l-134.982-99.297 37.236-49.648 802.133 588.024-37.236 49.648z" />
<glyph unicode="&#xe90f;" glyph-name="h_earthquake" data-tags="h_earthquake" d="M553.891 275.782h-355.297l124.121 124.121 183.079 179.976h-290.133l330.473 369.261c-13.964 1.552-27.927 1.552-41.891 1.552-279.273 1.552-504.242-224.97-504.242-502.691 0-218.764 139.636-404.945 336.679-474.764l217.212 302.545zM736.97 894.836l-170.667-169.115h290.133l-124.121-124.121-183.079-179.976h359.952l-505.794-467.006c32.582-6.206 66.715-10.861 100.848-10.861 277.721 0 504.242 224.97 504.242 504.242-1.552 193.939-110.158 361.503-271.515 446.836z" />
<glyph unicode="&#xe910;" glyph-name="h_extreme-weather-event" data-tags="h_extreme weather event" d="M375.467-14.352l347.539 491.83c3.103 4.655 0 10.861-6.206 10.861l-179.976 1.552 114.812 367.709c3.103 7.758-7.758 12.412-12.412 6.206l-345.988-487.176c-3.103-4.655 0-10.861 6.206-10.861l176.873-3.103-1.552-4.655-113.261-366.158c-1.552-7.758 9.309-12.412 13.964-6.206zM418.909 328.533l-178.424 3.103-4.655 7.758c-3.103 4.655-1.552 10.861 1.552 15.515l254.448 359.952c-4.655 0-9.309 0-13.964 0-114.812 0-212.558-68.267-257.552-166.012-6.206 0-12.412 1.552-18.618 1.552-110.158 0-200.145-89.988-200.145-200.145s89.988-200.145 200.145-200.145c24.824 0 96.194 0 162.909 0l54.303 178.424zM816.097 590.739c-1.552 0-3.103 0-4.655 0-29.479 65.164-83.782 117.915-150.497 144.291l-65.164-209.455 179.976-1.552c0 0 3.103-6.206 4.655-7.758 3.103-4.655 1.552-10.861-1.552-15.515l-217.212-308.752c60.509 0 211.006 0 252.897 0 110.158 0 200.145 89.988 200.145 200.145 1.552 108.606-88.436 198.594-198.594 198.594z" />
<glyph unicode="&#xe911;" glyph-name="h_fire" data-tags="h_fire" d="M467.006 960c0 0 397.188-142.739 330.473-479.418-18.618-63.612-52.752-130.327-139.636-186.182-86.885-54.303-217.212-138.085-107.055-339.782 0 0-439.079 161.358-316.509 519.758 34.133 100.848 164.461 162.909 201.697 203.248s122.57 85.333 31.030 282.376zM850.23 353.358c0 0-55.855-111.709-179.976-179.976-83.782-46.545-85.333-175.321-13.964-221.867 83.782-55.855 231.176 32.582 193.939 401.842z" />
<glyph unicode="&#xe912;" glyph-name="h_flood" data-tags="h_flood" d="M845.576 103.564c-55.855 0-88.436-18.618-110.158-32.582-18.618-12.412-31.030-18.618-58.958-18.618s-40.339 7.758-58.958 18.618c-23.273 13.964-54.303 32.582-110.158 32.582s-88.436-18.618-111.709-32.582c-18.618-12.412-29.479-18.618-58.958-18.618-27.927 0-40.339 6.206-58.958 18.618-23.273 13.964-54.303 32.582-110.158 32.582s-88.436-18.618-111.709-32.582c-18.618-12.412-29.479-18.618-58.958-18.618v-100.848c55.855 0 88.436 18.618 111.709 32.582 18.618 12.412 31.030 18.618 58.958 18.618s40.339-6.206 58.958-18.618c23.273-13.964 54.303-32.582 110.158-32.582s88.436 18.618 111.709 32.582c18.618 12.412 29.479 18.618 58.958 18.618 27.927 0 40.339-7.758 58.958-18.618 23.273-13.964 54.303-32.582 110.158-32.582s86.885 18.618 110.158 32.582c18.618 12.412 29.479 18.618 58.958 18.618 27.927 0 40.339-7.758 58.958-18.618 23.273-13.964 54.303-32.582 110.158-32.582v102.4c-27.927 0-40.339 6.206-58.958 18.618-21.721 12.412-54.303 31.030-110.158 31.030zM1013.139 74.085v0c1.552 0 1.552 0 0 0v0zM166.012 201.309c1.552 0 1.552 0 3.103 0 55.855 0 88.436-18.618 110.158-32.582 18.618-10.861 31.030-18.618 58.958-18.618s40.339 6.206 58.958 18.618c6.206 4.655 15.515 9.309 24.824 12.412v82.23h203.248v-97.745c15.515-9.309 27.927-15.515 52.752-15.515 27.927 0 40.339 6.206 58.958 18.618 23.273 13.964 54.303 32.582 110.158 32.582 12.412 0 21.721-1.552 32.582-3.103v273.067h152.048l-510.448 457.697-508.897-457.697h152.048v-269.964z" />
<glyph unicode="&#xe913;" glyph-name="h_landslide" data-tags="h_landslide" d="M966.594-64l-965.042 965.042v-963.491zM445.285 783.127h-144.291c-4.655 0-9.309 3.103-9.309 9.309v142.739c0 4.655 3.103 9.309 9.309 9.309h144.291c4.655 0 9.309-3.103 9.309-9.309v-144.291c0-3.103-3.103-7.758-9.309-7.758zM588.024 508.509l-100.848 100.848c-3.103 3.103-3.103 9.309 0 12.412l100.848 100.848c3.103 3.103 9.309 3.103 12.412 0l100.848-100.848c3.103-3.103 3.103-9.309 0-12.412l-100.848-100.848c-4.655-3.103-9.309-3.103-12.412 0zM662.497 812.606l-44.994 44.994c-3.103 3.103-3.103 9.309 0 12.412l44.994 44.994c3.103 3.103 9.309 3.103 12.412 0l44.994-44.994c3.103-3.103 3.103-9.309 0-12.412l-44.994-44.994c-4.655-3.103-9.309-3.103-12.412 0zM705.939 331.636l-44.994 44.994c-3.103 3.103-3.103 9.309 0 12.412l44.994 44.994c3.103 3.103 9.309 3.103 12.412 0l44.994-44.994c3.103-3.103 3.103-9.309 0-12.412l-44.994-44.994c-3.103-4.655-9.309-4.655-12.412 0zM833.164 174.933v102.4c0 4.655 3.103 9.309 9.309 9.309h102.4c4.655 0 9.309-3.103 9.309-9.309v-102.4c0-4.655-3.103-9.309-9.309-9.309h-102.4c-6.206 0-9.309 4.655-9.309 9.309z" />
<glyph unicode="&#xe914;" glyph-name="H_snow_twitter" data-tags="H_snow_twitter" horiz-adv-x="987" d="M975.903 348.703l-55.855 77.576-190.836-55.855-148.945 77.576 148.945 77.576 190.836-54.303 21.721 102.4-103.952 15.515 116.364 68.267-52.752 91.539-116.364-68.267 38.788 99.297-99.297 32.582-48.097-195.491-131.879-77.576v153.6l142.739 139.636-77.576 69.818-65.164-82.23v136.533h-103.952v-136.533l-65.164 83.782-77.576-69.818 142.739-139.636v-153.6l-131.879 77.576-49.648 192.388-99.297-32.582 38.788-99.297-116.364 68.267-51.2-91.539 116.364-68.267-103.952-15.515 21.721-102.4 190.836 55.855 148.945-77.576-148.945-77.576-190.836 55.855-21.721-102.4 103.952-15.515-116.364-68.267 52.752-91.539 116.364 68.267-38.788-99.297 99.297-32.582 48.097 195.491 131.879 77.576v-153.6l-142.739-139.636 77.576-69.818 65.164 83.782v-134.982h103.952v131.879l65.164-83.782 38.788-17.067 38.788 88.436-142.739 139.636v153.6l131.879-77.576 48.097-195.491 99.297 32.582-38.788 99.297 116.364-68.267 52.752 91.539-116.364 68.267 103.952 15.515 34.133 26.376z" />
<glyph unicode="&#xe915;" glyph-name="H_storm_twitter" data-tags="H_storm_twitter" horiz-adv-x="987" d="M977.455 254.061c0 93.091-27.927 190.836-80.679 277.721-44.994 72.921-108.606 136.533-184.63 184.63 80.679 4.655 166.012-10.861 243.588-49.648-66.715 66.715-155.152 116.364-254.448 139.636-72.921 17.067-152.048 20.17-231.176 6.206 51.2 52.752 117.915 96.194 193.939 122.57-93.091 0-190.836-27.927-277.721-80.679-77.576-48.097-145.842-119.467-195.491-204.8 0 0-1.552-1.552-1.552-1.552-9.309 68.267-4.655 139.636 17.067 211.006-54.303-76.024-89.988-172.218-96.194-273.067-3.103-51.2 0-102.4 10.861-155.152l6.206-29.479c-46.545 38.788-88.436 88.436-117.915 145.842 15.515-93.091 57.406-184.63 125.673-260.655 34.133-38.788 72.921-72.921 117.915-102.4l17.067-10.861c1.552-1.552 1.552-1.552 3.103-3.103-68.267-9.309-139.636-4.655-209.455 17.067 76.024-54.303 172.218-89.988 273.067-96.194 51.2-3.103 102.4 0 155.152 10.861l17.067 4.655c10.861 1.552 21.721 3.103 32.582 4.655-41.891-58.958-99.297-111.709-169.115-147.394 93.091 15.515 184.63 57.406 260.655 125.673 38.788 34.133 72.921 72.921 102.4 117.915l20.17 34.133 3.103 4.655c1.552-7.758 1.552-13.964 3.103-21.721 7.758-85.333-7.758-176.873-49.648-260.655 66.715 66.715 116.364 155.152 139.636 254.448 15.515 72.921 17.067 152.048 3.103 229.624 54.303-51.2 96.194-117.915 122.57-193.939zM353.745 451.103c0 66.715 54.303 119.467 119.467 119.467s119.467-54.303 119.467-119.467-54.303-119.467-119.467-119.467-119.467 52.752-119.467 119.467z" />
<glyph unicode="&#xe916;" glyph-name="l_quizzes_menu" data-tags="l_quizzes_menu" d="M974.352 461.964c0 266.861-215.661 482.521-482.521 482.521s-482.521-215.661-482.521-482.521 215.661-482.521 482.521-482.521c88.436 0 170.667 23.273 242.036 65.164l212.558-93.091-76.024 211.006c65.164 82.23 103.952 186.182 103.952 299.442zM198.594 614.012h386.327v-65.164h-386.327v65.164zM456.145 292.848h-257.552v65.164h257.552v-65.164zM198.594 421.624v65.164h386.327v-65.164h-386.327zM650.085 164.073l-145.842 144.291 48.097 48.097 96.194-96.194 176.873 176.873 48.097-48.097-223.418-224.97z" />
<glyph unicode="&#xe917;" glyph-name="l_tips_menu" data-tags="l_tips_menu" d="M359.952-12.8c0-27.927 23.273-51.2 51.2-51.2h204.8c27.927 0 51.2 23.273 51.2 51.2v51.2h-307.2v-51.2zM513.552 960c-197.042 0-358.4-161.358-358.4-358.4 0-122.57 62.061-229.624 153.6-293.236v-116.364c0-27.927 23.273-51.2 51.2-51.2h307.2c27.927 0 51.2 23.273 51.2 51.2v116.364c93.091 65.164 153.6 172.218 153.6 293.236 0 197.042-159.806 358.4-358.4 358.4z" />
<glyph unicode="&#xe918;" glyph-name="logo_ireact_pin" data-tags="logo_ireact_pin" horiz-adv-x="987" d="M775.758 458.861c0 31.030 0 51.2 0 62.061v0 6.206c3.103 26.376-15.515 161.358-46.545 215.661-21.721 37.236-46.545 68.267-77.576 96.194-119.467 107.055-293.236 125.673-432.873 46.545v0c-117.915-66.715-190.836-193.939-189.285-328.921 0-52.752 12.412-103.952 34.133-152.048 4.655-9.309 9.309-18.618 13.964-27.927 15.515-26.376 32.582-51.2 52.752-72.921 24.824-26.376 54.303-49.648 86.885-68.267 18.618-9.309 60.509-23.273 113.261-40.339 141.188-44.994 353.745-114.812 403.394-198.594 9.309-15.515 17.067-32.582 24.824-52.752h1.552c18.618 69.818 15.515 370.812 15.515 515.103zM612.848 342.497c-119.467-119.467-313.406-119.467-434.424 0-119.467 119.467-119.467 313.406 0 434.424 119.467 119.467 313.406 119.467 434.424 0 119.467-121.018 119.467-314.958 0-434.424zM229.624 384.388v235.83l85.333 71.37v-307.2zM335.127 705.552v63.612h88.436c40.339 0 71.37-10.861 94.642-32.582s34.133-49.648 34.133-83.782c0-29.479-6.206-52.752-18.618-71.37s-31.030-32.582-57.406-41.891l86.885-155.152h-83.782l-74.473 141.188h-69.818v63.612h79.127c18.618 0 34.133 4.655 44.994 15.515 12.412 10.861 17.067 24.824 17.067 41.891 0 18.618-6.206 32.582-18.618 41.891s-31.030 15.515-55.855 15.515h-66.715v63.612zM314.958 769.164v-48.097l-85.333-71.37v119.467zM881.261 108.218c7.758-13.964 15.515-29.479 23.273-48.097 17.067 63.612 13.964 333.576 13.964 463.903v1.552c0 31.030 0 44.994 0 52.752v0 7.758c3.103 21.721-13.964 145.842-41.891 193.939-18.618 34.133-41.891 62.061-69.818 86.885-86.885 77.576-206.352 103.952-316.509 72.921 63.612-13.964 122.57-44.994 172.218-88.436 31.030-27.927 58.958-62.061 79.127-99.297 31.030-55.855 49.648-179.976 49.648-218.764v0-6.206c0-3.103 0-32.582 0-62.061v-3.103c0-66.715 1.552-176.873 0-277.721 46.545-27.927 76.024-51.2 89.988-76.024z" />
<glyph unicode="&#xe919;" glyph-name="logo_ireact_R" data-tags="logo_ireact_R" horiz-adv-x="987" d="M66.715-43.83v603.539l221.867 183.079v-786.618zM338.23 775.37v162.909h224.97c103.952 0 184.63-27.927 243.588-82.23s88.436-125.673 88.436-215.661c0-74.473-15.515-134.982-46.545-181.527s-80.679-82.23-147.394-108.606l220.315-395.636h-215.661l-190.836 363.055h-176.873v162.909h201.697c48.097 0 86.885 12.412 116.364 38.788s44.994 62.061 44.994 108.606c0 46.545-15.515 83.782-46.545 108.606-31.030 26.376-79.127 38.788-142.739 38.788h-173.77v162.909zM288.582 939.83v-122.57l-221.867-181.527v304.097z" />
<glyph unicode="&#xe91a;" glyph-name="Measure_menu" data-tags="Measure_menu" d="M63.612 663.661l51.2-51.2c3.103-3.103 9.309-3.103 13.964 0l29.479 29.479c3.103 3.103 9.309 3.103 13.964 0l13.964-13.964c3.103-3.103 3.103-9.309 0-13.964l-31.030-27.927c-3.103-3.103-3.103-9.309 0-13.964l43.442-43.442c3.103-3.103 9.309-3.103 13.964 0l29.479 29.479c3.103 3.103 9.309 3.103 13.964 0l13.964-13.964c3.103-3.103 3.103-9.309 0-13.964l-29.479-29.479c-3.103-3.103-3.103-9.309 0-13.964l43.442-43.442c3.103-3.103 9.309-3.103 13.964 0l29.479 29.479c3.103 3.103 9.309 3.103 13.964 0l13.964-13.964c3.103-3.103 3.103-9.309 0-13.964l-31.030-27.927c-3.103-3.103-3.103-9.309 0-13.964l43.442-43.442c3.103-3.103 9.309-3.103 13.964 0l29.479 29.479c3.103 3.103 9.309 3.103 13.964 0l13.964-13.964c3.103-3.103 3.103-9.309 0-13.964l-29.479-29.479c-3.103-3.103-3.103-9.309 0-13.964l43.442-43.442c3.103-3.103 9.309-3.103 13.964 0l29.479 29.479c3.103 3.103 9.309 3.103 13.964 0l13.964-13.964c3.103-3.103 3.103-9.309 0-13.964l-29.479-29.479c-3.103-3.103-3.103-9.309 0-13.964l43.442-43.442c3.103-3.103 9.309-3.103 13.964 0l29.479 29.479c3.103 3.103 9.309 3.103 13.964 0l13.964-13.964c3.103-3.103 3.103-9.309 0-13.964l-29.479-29.479c-3.103-3.103-3.103-9.309 0-13.964l40.339-40.339c3.103-3.103 9.309-3.103 13.964 0l29.479 29.479c3.103 3.103 9.309 3.103 13.964 0l13.964-13.964c3.103-3.103 3.103-9.309 0-13.964l-29.479-29.479c-3.103-3.103-3.103-9.309 0-13.964l43.442-43.442c3.103-3.103 37.236-37.236 40.339-40.339l31.030-31.030c3.103-3.103 9.309-3.103 13.964 0l141.188 141.188c3.103 3.103 3.103 9.309 0 13.964l-60.509 60.509c-3.103 3.103-3.103 9.309 0 13.964 26.376 26.376 48.097 55.855 65.164 88.436 1.552 3.103 1.552 7.758-1.552 10.861l-26.376 26.376c-3.103 3.103-3.103 9.309 0 13.964l13.964 13.964c3.103 3.103 9.309 3.103 13.964 0l10.861-10.861c4.655-4.655 12.412-3.103 15.515 3.103 13.964 35.685 23.273 71.37 27.927 110.158 0 6.206-3.103 10.861-9.309 10.861h-37.236c-4.655 0-9.309 4.655-9.309 9.309v18.618c0 4.655 4.655 9.309 9.309 9.309h40.339c4.655 0 9.309 4.655 9.309 9.309 0 0 0 0 0 0 0 43.442-6.206 85.333-17.067 125.673-1.552 6.206-7.758 7.758-12.412 6.206l-41.891-18.618c-4.655-1.552-10.861 0-12.412 4.655l-7.758 17.067c-1.552 4.655 0 10.861 4.655 12.412l44.994 20.17c4.655 1.552 7.758 7.758 4.655 12.412-18.618 41.891-41.891 80.679-72.921 114.812-3.103 4.655-9.309 4.655-13.964 0l-31.030-31.030c-3.103-3.103-9.309-3.103-13.964 0l-13.964 13.964c-3.103 3.103-3.103 9.309 0 13.964l31.030 31.030c3.103 3.103 3.103 10.861 0 13.964-31.030 27.927-65.164 51.2-102.4 68.267-4.655 3.103-10.861 0-12.412-4.655l-15.515-35.685c0-6.206-6.206-7.758-10.861-6.206l-18.618 7.758c-4.655 1.552-7.758 7.758-4.655 12.412l15.515 35.685c1.552 4.655 0 10.861-6.206 12.412-37.236 12.412-76.024 20.17-116.364 21.721-6.206 0-10.861-4.655-10.861-9.309v-44.994c0-4.655-4.655-9.309-9.309-9.309h-18.618c-4.655 0-9.309 4.655-9.309 9.309v46.545c0 6.206-4.655 9.309-10.861 9.309-48.097-3.103-93.091-13.964-136.533-31.030-6.206-3.103-7.758-10.861-3.103-15.515l10.861-10.861c3.103-3.103 3.103-9.309 0-13.964l-13.964-13.964c-3.103-3.103-9.309-3.103-13.964 0l-23.273 24.824c-3.103 3.103-7.758 3.103-10.861 1.552-31.030-18.618-60.509-40.339-88.436-65.164-3.103-3.103-9.309-3.103-13.964 0l-55.855 55.855c-3.103 3.103-9.309 3.103-13.964 0l-141.188-141.188c-3.103-3.103-3.103-9.309 0-13.964l55.855-55.855zM373.915 663.661c94.642 93.091 246.691 93.091 339.782-1.552s94.642-246.691 1.552-339.782l-341.333 341.333z" />
<glyph unicode="&#xe91b;" glyph-name="People_casualties" data-tags="People_casualties" d="M453.042-40.727c0 234.279 190.836 425.115 425.115 425.115h145.842v-422.012l-570.958-3.103zM218.764 382.836c-121.018 0-220.315-99.297-220.315-220.315s99.297-220.315 220.315-220.315 220.315 99.297 220.315 220.315-99.297 220.315-220.315 220.315z" />
<glyph unicode="&#xe91c;" glyph-name="People_disabled" data-tags="People_disabled" d="M259.103 283.539c-24.824 0-44.994-20.17-44.994-44.994s20.17-44.994 44.994-44.994c24.824 0 44.994 20.17 44.994 44.994s-20.17 44.994-44.994 44.994zM988.315 137.697h-26.376c4.655 6.206 7.758 13.964 7.758 21.721 0 18.618-15.515 32.582-32.582 32.582h-74.473l-43.442 111.709-52.752 139.636h-304.097l-17.067 37.236h231.176c23.273 0 41.891 18.618 41.891 41.891v0c0 23.273-18.618 41.891-41.891 41.891h-269.964l-26.376 58.958c-17.067 37.236-54.303 62.061-94.642 62.061h-17.067c55.855 1.552 100.848 46.545 100.848 102.4s-46.545 102.4-102.4 102.4-102.4-46.545-102.4-102.4c0-32.582 15.515-62.061 38.788-80.679h-139.636c-18.618 0-34.133-15.515-34.133-34.133s15.515-34.133 34.133-34.133h85.333l62.061-159.806c-114.812-23.273-201.697-124.121-201.697-245.139 0-138.085 111.709-249.794 249.794-249.794 128.776 0 234.279 96.194 248.242 220.315h231.176l29.479-74.473c-9.309-15.515-15.515-32.582-15.515-51.2 0-52.752 41.891-94.642 94.642-94.642 46.545 0 85.333 34.133 93.091 77.576h48.097c20.17 0 35.685 15.515 35.685 35.685 0 24.824-15.515 40.339-35.685 40.339zM259.103 63.224c-96.194 0-175.321 79.127-175.321 175.321s79.127 175.321 175.321 175.321c96.194 0 175.321-79.127 175.321-175.321s-79.127-175.321-175.321-175.321zM847.127 41.503c-21.721 0-40.339 18.618-40.339 40.339s18.618 40.339 40.339 40.339c21.721 0 40.339-18.618 40.339-40.339s-18.618-40.339-40.339-40.339z" />
<glyph unicode="&#xe91d;" glyph-name="People_injured" data-tags="People_injured" d="M823.855 441.794h-460.8l124.121-339.782h91.539c44.994 0 82.23-37.236 82.23-82.23s-37.236-82.23-82.23-82.23h363.055v387.879c-1.552 65.164-52.752 116.364-117.915 116.364zM83.782 325.43v-318.061c0-38.788 31.030-69.818 69.818-69.818h58.958v504.242h-12.412c-65.164 0-116.364-51.2-116.364-116.364zM235.83 441.794v-480.97h276.17l-175.321 480.97h-100.848zM681.115 890.182c-43.442 43.442-103.952 69.818-169.115 69.818-114.812 0-212.558-80.679-235.83-189.285h262.206l142.739 119.467zM271.515 747.442c-1.552-9.309-1.552-18.618-1.552-29.479 0-49.648 15.515-97.745 41.891-136.533l197.042 164.461h-237.382zM696.63 873.115v0l-370.812-310.303c44.994-55.855 108.606-88.436 186.182-88.436 133.43 0 242.036 108.606 242.036 242.036 0 62.061-20.17 114.812-57.406 156.703z" />
<glyph unicode="&#xe91e;" glyph-name="people_injured" data-tags="people_injured" d="M823.855 441.794h-460.8l124.121-339.782h91.539c44.994 0 82.23-37.236 82.23-82.23s-37.236-82.23-82.23-82.23h363.055v387.879c-1.552 65.164-52.752 116.364-117.915 116.364zM83.782 325.43v-318.061c0-38.788 31.030-69.818 69.818-69.818h58.958v504.242h-12.412c-65.164 0-116.364-51.2-116.364-116.364zM235.83 441.794v-480.97h276.17l-175.321 480.97h-100.848zM681.115 890.182c-43.442 43.442-103.952 69.818-169.115 69.818-114.812 0-212.558-80.679-235.83-189.285h262.206l142.739 119.467zM271.515 747.442c-1.552-9.309-1.552-18.618-1.552-29.479 0-49.648 15.515-97.745 41.891-136.533l197.042 164.461h-237.382zM696.63 873.115v0l-370.812-310.303c44.994-55.855 108.606-88.436 186.182-88.436 133.43 0 242.036 108.606 242.036 242.036 0 62.061-20.17 114.812-57.406 156.703z" />
<glyph unicode="&#xe91f;" glyph-name="People_menu" data-tags="People_menu" d="M743.176 438.691c89.988 0 161.358 71.37 161.358 159.806s-71.37 159.806-161.358 159.806-162.909-71.37-162.909-159.806 74.473-159.806 162.909-159.806zM311.855 438.691c111.709 0 201.697 88.436 201.697 198.594s-89.988 198.594-201.697 198.594-201.697-88.436-201.697-198.594 89.988-198.594 201.697-198.594zM325.818 368.873c-108.606 0-325.818-54.303-325.818-159.806v-269.964h651.636v269.964c0 107.055-217.212 159.806-325.818 159.806zM698.182 368.873c-13.964 0-29.479-1.552-44.994-1.552 54.303-38.788 91.539-89.988 91.539-158.255v-269.964h279.273v269.964c0 107.055-217.212 159.806-325.818 159.806z" />
<glyph unicode="&#xe920;" glyph-name="People_rescue" data-tags="people_rescue" d="M997.624 204.412c-10.861 0-17.067 6.206-27.927 20.17-12.412 15.515-27.927 35.685-60.509 35.685s-48.097-21.721-60.509-35.685c-10.861-15.515-17.067-20.17-27.927-20.17s-17.067 6.206-27.927 20.17c-12.412 15.515-27.927 35.685-60.509 35.685-6.206 0-10.861-1.552-17.067-3.103-1.552 4.655-1.552 9.309-3.103 13.964 0 1.552 1.552 3.103 1.552 3.103l189.285 459.248c10.861 24.824-1.552 54.303-26.376 65.164s-54.303-1.552-65.164-26.376l-161.358-392.533c-38.788 35.685-89.988 55.855-144.291 55.855-55.855 0-108.606-21.721-147.394-60.509l-156.703 380.121c-10.861 24.824-38.788 37.236-65.164 26.376-24.824-10.861-37.236-38.788-26.376-65.164l187.733-454.594c-3.103-12.412-4.655-26.376-4.655-38.788v-18.618c-1.552 0-3.103 0-4.655 0-10.861 0-15.515 6.206-27.927 20.17-12.412 15.515-27.927 35.685-60.509 35.685s-48.097-21.721-60.509-35.685c-10.861-15.515-17.067-20.17-27.927-20.17s-17.067 6.206-27.927 20.17c-12.412 15.515-27.927 35.685-60.509 35.685-10.861 0-20.17-9.309-20.17-20.17s9.309-20.17 20.17-20.17c10.861 0 15.515-6.206 27.927-20.17 12.412-15.515 27.927-35.685 60.509-35.685s48.097 21.721 60.509 35.685c10.861 15.515 17.067 20.17 27.927 20.17s17.067-6.206 27.927-20.17c12.412-15.515 27.927-35.685 60.509-35.685 13.964 0 26.376 4.655 35.685 10.861 0 0 0 0 1.552 0 0 0 0 0 0 0 9.309 7.758 17.067 15.515 23.273 24.824 10.861 15.515 17.067 20.17 27.927 20.17s15.515-6.206 27.927-20.17c12.412-15.515 27.927-35.685 60.509-35.685s48.097 21.721 60.509 35.685c10.861 15.515 17.067 20.17 27.927 20.17s17.067-6.206 27.927-20.17c12.412-15.515 27.927-35.685 60.509-35.685s48.097 21.721 60.509 35.685c3.103 3.103 6.206 7.758 9.309 10.861 6.206 7.758 10.861 9.309 18.618 9.309 10.861 0 15.515-6.206 27.927-20.17 12.412-15.515 27.927-35.685 60.509-35.685s48.097 21.721 60.509 35.685c10.861 15.515 17.067 20.17 27.927 20.17s17.067-6.206 27.927-20.17c12.412-15.515 27.927-35.685 60.509-35.685 10.861 0 20.17 9.309 20.17 20.17s-7.758 20.17-18.618 20.17zM507.345 437.139c77.576 0 141.188 63.612 141.188 141.188s-63.612 141.188-141.188 141.188-141.188-63.612-141.188-141.188c0-77.576 63.612-141.188 141.188-141.188z" />
<glyph unicode="&#xe921;" glyph-name="res_drinkable_water" data-tags="res_drinkable_water" d="M834.715 915.006c-4.655 4.655-10.861 7.758-18.618 7.758h-615.952c-6.206 0-13.964-3.103-18.618-7.758s-6.206-12.412-6.206-18.618l66.715-915.394c1.552-12.412 10.861-23.273 24.824-23.273h482.521c12.412 0 23.273 9.309 24.824 23.273l66.715 915.394c0 6.206-1.552 13.964-6.206 18.618zM789.721 873.115l-20.17-273.067c-7.758-4.655-15.515-9.309-20.17-13.964-7.758-6.206-10.861-9.309-20.17-9.309-7.758 0-10.861 3.103-18.618 10.861-10.861 9.309-26.376 24.824-54.303 24.824s-43.442-15.515-54.303-24.824c-7.758-7.758-10.861-10.861-18.618-10.861s-10.861 3.103-18.618 10.861c-10.861 9.309-26.376 24.824-54.303 24.824s-43.442-15.515-54.303-24.824c-7.758-7.758-10.861-10.861-18.618-10.861s-10.861 3.103-18.618 10.861c-10.861 9.309-24.824 24.824-54.303 24.824-27.927 0-43.442-15.515-54.303-24.824-7.758-7.758-10.861-10.861-18.618-10.861s-10.861 3.103-18.618 10.861c-6.206 6.206-13.964 13.964-26.376 18.618l-20.17 266.861h563.2z" />
<glyph unicode="&#xe922;" glyph-name="res_electricity" data-tags="res_electricity" d="M768 949.139c-7.758 6.206-20.17 6.206-27.927-1.552l-515.103-538.376c-6.206-6.206-7.758-15.515-4.655-21.721 3.103-7.758 10.861-12.412 18.618-12.412h179.976l-260.655-395.636c-6.206-9.309-4.655-20.17 4.655-27.927 3.103-3.103 7.758-4.655 12.412-4.655s10.861 1.552 13.964 6.206l532.17 521.309c6.206 6.206 7.758 15.515 4.655 23.273s-10.861 12.412-18.618 12.412h-187.733l252.897 412.703c6.206 9.309 3.103 20.17-4.655 26.376z" />
<glyph unicode="&#xe923;" glyph-name="res_Evacuation" data-tags="res_Evacuation" d="M712.145 617.115c0-29.134-23.618-52.752-52.752-52.752s-52.752 23.618-52.752 52.752c0 29.134 23.618 52.752 52.752 52.752s52.752-23.618 52.752-52.752zM659.394 534.885c-44.994 0-82.23 37.236-82.23 82.23s37.236 82.23 82.23 82.23 82.23-37.236 82.23-82.23-37.236-82.23-82.23-82.23zM659.394 641.939c-13.964 0-24.824-10.861-24.824-24.824s10.861-24.824 24.824-24.824c13.964 0 24.824 10.861 24.824 24.824s-10.861 24.824-24.824 24.824zM269.964 454.206c0-12.853-10.42-23.273-23.273-23.273s-23.273 10.42-23.273 23.273c0 12.853 10.42 23.273 23.273 23.273s23.273-10.42 23.273-23.273zM246.691 403.006c-27.927 0-51.2 23.273-51.2 51.2s23.273 51.2 51.2 51.2 51.2-23.273 51.2-51.2c0-29.479-21.721-51.2-51.2-51.2zM246.691 458.861c-3.103 0-6.206-3.103-6.206-4.655 0-3.103 3.103-4.655 6.206-4.655s4.655 3.103 4.655 4.655c1.552 3.103-1.552 4.655-4.655 4.655zM799.030 351.806c0-9.426-7.641-17.067-17.067-17.067s-17.067 7.641-17.067 17.067c0 9.426 7.641 17.067 17.067 17.067s17.067-7.641 17.067-17.067zM781.964 305.261c-24.824 0-46.545 20.17-46.545 46.545 0 24.824 20.17 46.545 46.545 46.545 24.824 0 46.545-20.17 46.545-46.545 0-24.824-21.721-46.545-46.545-46.545zM781.964 362.667c-6.206 0-10.861-4.655-10.861-10.861s4.655-10.861 10.861-10.861c6.206 0 10.861 4.655 10.861 10.861s-4.655 10.861-10.861 10.861zM27.927 165.624c-7.758 0-13.964 3.103-20.17 7.758-10.861 10.861-10.861 29.479 0 40.339l74.473 74.473c4.655 4.655 12.412 7.758 20.17 7.758h245.139l240.485 359.952c9.309 12.412 26.376 17.067 38.788 7.758s17.067-26.376 7.758-38.788l-249.794-372.364c-4.655-7.758-13.964-12.412-23.273-12.412h-248.242l-65.164-65.164c-4.655-6.206-12.412-9.309-20.17-9.309zM646.982-14.352h-76.024c-15.515 0-27.927 12.412-27.927 27.927v150.497l-128.776 128.776c-10.861 10.861-10.861 29.479 0 40.339s29.479 10.861 40.339 0l138.085-138.085c4.655-4.655 7.758-12.412 7.758-20.17v-134.982h48.097c15.515 0 27.927-12.412 27.927-27.927-1.552-13.964-13.964-26.376-29.479-26.376zM265.309 443.345c-7.758 0-13.964 3.103-20.17 7.758-10.861 10.861-10.861 29.479 0 40.339l107.055 107.055c4.655 4.655 12.412 7.758 20.17 7.758h200.145c15.515 0 27.927-12.412 27.927-27.927s-12.412-27.927-27.927-27.927h-189.285l-99.297-99.297c-4.655-4.655-10.861-7.758-18.618-7.758zM633.018 320.776c-12.412 0-23.273 7.758-27.927 20.17l-60.509 214.109c-4.655 15.515 4.655 31.030 20.17 35.685s31.030-4.655 35.685-20.17l54.303-192.388 105.503 4.655c15.515 0 29.479-10.861 29.479-27.927 0-15.515-10.861-29.479-27.927-29.479l-128.776-4.655c0 0 0 0 0 0zM591.127 196.655l-82.23 82.23v-80.679l34.133-34.133v-150.497c0-15.515 12.412-27.927 27.927-27.927h76.024c15.515 0 27.927 12.412 27.927 27.927s-12.412 27.927-27.927 27.927h-48.097v134.982c0 7.758-3.103 13.964-7.758 20.17zM605.091 340.945c3.103-12.412 13.964-20.17 27.927-20.17 0 0 0 0 1.552 0l110.158 3.103c10.861-13.964 29.479-23.273 49.648-17.067 15.515 4.655 27.927 17.067 31.030 32.582 7.758 31.030-15.515 58.958-44.994 58.958-13.964 0-26.376-6.206-35.685-17.067l-93.091-3.103-48.097 178.424c20.17-18.618 48.097-27.927 79.127-18.618 27.927 7.758 49.648 31.030 55.855 58.958 12.412 54.303-27.927 102.4-79.127 102.4-31.030 0-58.958-17.067-72.921-43.442l-32.582-48.097h-46.545v-57.406h9.309l-9.309-13.964v-102.4l51.2 76.024 46.545-169.115zM724.558-3.491c3.103 10.861 1.552 23.273 0 35.685-7.758 34.133-38.788 57.406-74.473 58.958v83.782c0 21.721-7.758 40.339-23.273 55.855l-80.679 80.679v52.752l10.861-38.788c9.309-34.133 40.339-57.406 76.024-57.406 1.552 0 93.091 3.103 93.091 3.103 15.515-12.412 35.685-18.618 55.855-18.618 29.479 0 57.406 13.964 76.024 37.236s24.824 52.752 18.618 82.23c-6.206 27.927-26.376 52.752-52.752 65.164-13.964 6.206-27.927 9.309-41.891 9.309-20.17 0-38.788-6.206-55.855-17.067l-34.133-1.552-15.515 54.303c32.582 4.655 63.612 20.17 85.333 46.545 24.824 29.479 35.685 69.818 29.479 108.606-9.309 49.648-48.097 93.091-97.745 103.952-10.861 3.103-21.721 4.655-32.582 4.655-46.545 0-89.988-24.824-114.812-65.164v169.115h422.012v-851.782c-49.648 0-142.739-1.552-243.588-1.552z" />
<glyph unicode="&#xe924;" glyph-name="res_food" data-tags="res_food" d="M290.133 379.733l150.497 150.497-372.364 373.915c-83.782-82.23-83.782-217.212 0-300.994l221.867-223.418zM651.636 475.927c82.23-37.236 195.491-10.861 280.824 72.921 102.4 102.4 121.018 248.242 43.442 325.818s-223.418 58.958-325.818-43.442c-85.333-85.333-111.709-198.594-72.921-280.824l-521.309-518.206 74.473-74.473 367.709 366.158 366.158-366.158 74.473 74.473-364.606 366.158 77.576 77.576z" />
<glyph unicode="&#xe925;" glyph-name="res_internet" data-tags="res_internet" d="M934.012 766.061c-1.552 4.655-12.412 20.17-17.067 21.721-86.885 105.503-218.764 172.218-364.606 172.218-259.103 0-471.661-212.558-471.661-471.661 0-58.958 10.861-110.158 34.133-164.461l58.958 23.273c-15.515 32.582-24.824 68.267-27.927 108.606h170.667c1.552-17.067 3.103-32.582 4.655-49.648l60.509 24.824c-1.552 7.758-1.552 17.067-1.552 24.824h63.612l4.655 1.552 40.339 15.515c21.721 9.309 41.891-12.412 34.133-34.133v-82.23c-12.412-1.552-23.273-3.103-35.685-6.206l-29.479-71.37c21.721 6.206 43.442 10.861 65.164 13.964v-170.667c-32.582 35.685-60.509 74.473-82.23 117.915l-31.030-74.473c17.067-26.376 35.685-51.2 55.855-76.024-26.376 6.206-52.752 13.964-76.024 24.824l-23.273-58.958c58.958-26.376 124.121-38.788 187.733-38.788v0c0 0 0 0 0 0v0 0c260.655 0 471.661 212.558 471.661 471.661 0 103.952-34.133 200.145-91.539 277.721zM316.509 519.37h-170.667c6.206 72.921 31.030 141.188 69.818 198.594 38.788-26.376 79.127-48.097 122.57-63.612-12.412-43.442-20.17-88.436-21.721-134.982zM256 767.612c54.303 58.958 127.224 100.848 209.455 119.467-46.545-51.2-82.23-110.158-107.055-172.218-35.685 13.964-69.818 31.030-102.4 52.752zM521.309 519.37h-141.188c1.552 38.788 7.758 77.576 18.618 114.812 40.339-10.861 80.679-17.067 122.57-20.17v-94.642zM521.309 677.624c-34.133 1.552-68.267 7.758-102.4 17.067 23.273 58.958 57.406 111.709 102.4 159.806v-176.873zM892.121 714.861c37.236-55.855 62.061-122.57 66.715-195.491h-170.667c-1.552 44.994-9.309 88.436-21.721 131.879 44.994 15.515 86.885 37.236 125.673 63.612zM853.333 764.509c-34.133-21.721-68.267-40.339-105.503-52.752-24.824 63.612-62.061 124.121-107.055 175.321 82.23-18.618 156.703-62.061 212.558-122.57zM584.921 854.497c43.442-48.097 79.127-102.4 102.4-161.358-34.133-7.758-68.267-13.964-102.4-15.515v176.873zM584.921 614.012c41.891 1.552 82.23 7.758 122.57 18.618 9.309-35.685 17.067-74.473 18.618-111.709h-141.188v93.091zM584.921 455.758h141.188c-1.552-35.685-7.758-71.37-17.067-107.055-40.339 10.861-82.23 15.515-124.121 13.964v93.091zM584.921 300.606c35.685 1.552 71.37-3.103 103.952-10.861-24.824-62.061-58.958-117.915-103.952-167.564v178.424zM640.776 88.048c46.545 54.303 83.782 114.812 108.606 179.976 34.133-13.964 68.267-34.133 103.952-58.958-55.855-58.958-130.327-102.4-212.558-121.018zM892.121 260.267c-40.339 29.479-80.679 52.752-122.57 68.267 10.861 40.339 18.618 83.782 20.17 127.224h170.667c-6.206-71.37-29.479-138.085-68.267-195.491zM408.048 278.885l6.206 17.067 37.236 93.091c4.655 10.861-6.206 21.721-17.067 17.067l-48.097-20.17c0 0 0 0 0 0l-34.133-13.964-158.255-65.164c0 0 0 0 0 0l-44.994-18.618-144.291-57.406 167.564-68.267-139.636-139.636c-9.309-9.309-12.412-26.376-3.103-37.236 4.655-6.206 12.412-9.309 20.17-9.309 6.206 0 13.964 3.103 18.618 7.758l141.188 141.188 68.267-167.564 130.327 321.164c0 0 0 0 0 0z" />
<glyph unicode="&#xe926;" glyph-name="res_safe_place" data-tags="res_safe_place" d="M512 917.333l-384-170.667v-256c0-236.8 163.84-458.24 384-512 220.16 53.76 384 275.2 384 512v256l-384 170.667zM512 746.667c70.692 0 128-57.308 128-128v0c0-70.692-57.308-128-128-128v0c-70.692 0-128 57.308-128 128v0c0 70.692 57.308 128 128 128v0zM730.88 234.667c-51.627-78.933-128.853-138.24-218.88-167.253-90.027 29.013-167.253 88.32-218.88 167.253-14.507 21.333-26.88 42.667-37.12 65.28 0 70.4 115.627 128 256 128s256-56.32 256-128c-10.24-22.613-22.613-43.947-37.12-65.28z" />
<glyph unicode="&#xe927;" glyph-name="res_sleep" data-tags="res_sleep" d="M810.667 661.333h-597.333v-298.667h-85.333v384h-85.333v-640h85.333v128h768v-128h85.333v384c0 94.257-76.41 170.667-170.667 170.667v0z" />
<glyph unicode="&#xe928;" glyph-name="res_toilet" data-tags="res_toilet" d="M155.152-64v383.224h-76.024v279.273c0 55.855 46.545 102.4 102.4 102.4h153.6c55.855 0 102.4-46.545 102.4-102.4v-280.824h-76.024v-381.673h-206.352zM792.824-64v305.648h153.6l-130.327 389.43c-13.964 41.891-52.752 69.818-96.194 69.818h-6.206c-43.442 0-83.782-27.927-96.194-69.818l-130.327-389.43h153.6v-305.648h152.048zM257.552 752.097c55.855 0 102.4 44.994 102.4 102.4s-44.994 102.4-102.4 102.4-102.4-46.545-102.4-102.4 46.545-102.4 102.4-102.4zM716.8 752.097c55.855 0 102.4 44.994 102.4 102.4s-44.994 102.4-102.4 102.4-102.4-44.994-102.4-102.4 46.545-102.4 102.4-102.4z" />
<glyph unicode="&#xe929;" glyph-name="resources_menu" data-tags="resources_menu" d="M839.37 645.042l-108.606 29.479-29.479 108.606 130.327 130.327c7.758 7.758 3.103 23.273-7.758 24.824-13.964 1.552-27.927 3.103-41.891 3.103-114.812-3.103-207.903-97.745-209.455-212.558-3.103-121.018 94.642-218.764 214.109-220.315 117.915-1.552 215.661 94.642 217.212 212.558 0 17.067-1.552 35.685-4.655 51.2-3.103 10.861-17.067 15.515-24.824 7.758l-134.982-134.982zM612.848 629.527l-536.824-499.588c-38.788-35.685-40.339-97.745-1.552-134.982v0c37.236-37.236 99.297-37.236 136.533 3.103l490.279 543.030-88.436 88.436zM133.43 21.333c-15.515 0-27.927 12.412-27.927 27.927s12.412 27.927 27.927 27.927 27.927-12.412 27.927-27.927-12.412-27.927-27.927-27.927zM980.558-20.558v0c-38.788-38.788-102.4-38.788-141.188 0l-271.515 271.515 141.188 141.188 271.515-271.515c37.236-38.788 37.236-102.4 0-141.188zM17.067 885.527l52.752 52.752 224.97-119.467v-96.194l-57.406-57.406h-94.642zM230.926 671.969l57.048 57.048 182.115-182.115-57.048-57.048-182.115 182.115zM709.042 392.145l-141.188-141.188-9.309 91.539 57.406 58.958z" />
<glyph unicode="&#xe92a;" glyph-name="side_menu_agents_location" data-tags="side_menu_agents_location" d="M519.758 696.242c-211.006 0-380.121-170.667-380.121-380.121s169.115-380.121 380.121-380.121c209.455 0 380.121 170.667 380.121 380.121s-170.667 380.121-380.121 380.121zM519.758 47.709c-148.945 0-268.412 121.018-268.412 268.412 0 148.945 121.018 268.412 268.412 268.412 148.945 0 268.412-121.018 268.412-268.412 0-148.945-119.467-268.412-268.412-268.412zM330.473 192h377.018l-187.733 325.818zM390.982 704c43.442 15.515 88.436 23.273 136.533 23.273 41.891 0 80.679-6.206 117.915-17.067v51.2h-254.448v-57.406zM693.527 829.673v0c-3.103 48.097-43.442 86.885-93.091 86.885-9.309 0-17.067-1.552-24.824-4.655-6.206 3.103-10.861 6.206-17.067 9.309-1.552-9.309-4.655-17.067-10.861-23.273-10.861-7.758-20.17-20.17-27.927-32.582-6.206 12.412-15.515 21.721-26.376 31.030 0 0 0 0 0 0-6.206 6.206-10.861 13.964-12.412 23.273-6.206-3.103-10.861-6.206-17.067-9.309-9.309 3.103-17.067 4.655-26.376 4.655-49.648 0-88.436-38.788-91.539-86.885h-3.103v-57.406h350.642v58.958zM668.703 829.673h-44.994c-1.552 24.824-10.861 46.545-26.376 63.612 1.552 0 1.552 0 3.103 0 37.236 0 66.715-27.927 68.267-63.612zM569.406 885.527c17.067-13.964 27.927-32.582 29.479-55.855h-65.164c0 24.824 13.964 44.994 35.685 55.855zM505.794 829.673h-63.612c1.552 21.721 12.412 41.891 27.927 54.303 20.17-10.861 34.133-31.030 35.685-54.303zM437.527 893.285c1.552 0 3.103 0 4.655 0-15.515-17.067-24.824-38.788-26.376-63.612h-48.097c4.655 35.685 34.133 63.612 69.818 63.612zM519.758 893.285c18.618 0 32.582 15.515 32.582 32.582s-13.964 34.133-32.582 34.133c-18.618 0-32.582-15.515-32.582-32.582s13.964-34.133 32.582-34.133z" />
<glyph unicode="&#xe92b;" glyph-name="side_menu_mission" data-tags="side_menu_mission" d="M512 494.545c-23.785-0.51-42.933-19.658-43.442-43.394l-0.001-0.048c0-23.993 19.45-43.442 43.442-43.442s43.442 19.45 43.442 43.442v0c-0.51 23.785-19.658 42.933-43.394 43.442l-0.048 0.001zM743.176 478.255c-12.617 108.51-97.841 193.734-205.259 206.248l-1.092 0.104v83.782h-51.2v-83.782c-108.51-12.617-193.734-97.841-206.248-205.259l-0.104-1.092h-82.23v-51.2h83.782c12.617-108.51 97.841-193.734 205.259-206.248l1.092-0.104v-83.782h51.2v83.782c108.51 12.617 193.734 97.841 206.248 205.259l0.104 1.092h82.23v51.2zM690.424 427.055c-6.896-39.588-25.153-74.069-51.242-100.892l0.042 0.044c-25.865-27.453-60.812-46.096-100.020-51.113l-0.829-0.087v26.376h-51.2v-26.376c-39.588 6.896-74.069 25.153-100.892 51.242l0.044-0.042c-27.453 25.865-46.096 60.812-51.113 100.020l-0.087 0.829h26.376v51.2h-26.376c6.896 39.588 25.153 74.069 51.242 100.892l-0.042-0.044c25.865 27.453 60.812 46.096 100.020 51.113l0.829 0.087v-27.152h51.2v26.376c39.588-6.896 74.069-25.153 100.892-51.242l-0.044 0.042c27.443-25.872 46.083-60.815 51.113-100.017l0.087-0.831h-26.376v-51.2z" />
<glyph unicode="&#xe92c;" glyph-name="twitter" data-tags="twitter" d="M958.293 704c-32.853-14.933-68.267-24.747-104.96-29.44 37.547 22.613 66.56 58.453 80.213 101.547-35.413-21.333-74.667-36.267-116.053-44.8-33.707 36.693-81.067 58.027-134.827 58.027-100.267 0-182.187-81.92-182.187-183.040 0-14.507 1.707-28.587 4.693-41.813-151.893 7.68-287.147 80.64-377.173 191.147-15.787-26.88-24.747-58.453-24.747-91.733 0-63.573 32-119.893 81.493-151.893-30.293 0-58.453 8.533-83.2 21.333 0 0 0 0 0-1.28 0-88.747 63.147-162.987 146.773-179.627-15.36-4.267-31.573-6.4-48.213-6.4-11.52 0-23.040 1.28-34.133 3.413 23.040-72.107 90.027-125.867 170.667-127.147-62.293-49.493-141.227-78.507-227.413-78.507-14.507 0-29.013 0.853-43.52 2.56 81.067-52.053 177.493-82.347 280.747-82.347 336.213 0 520.96 279.040 520.96 520.96 0 8.107 0 15.787-0.427 23.893 35.84 25.6 66.56 58.027 91.307 95.147z" />
<glyph unicode="&#xe92d;" glyph-name="cap_CBRNE" data-tags="capCBRNE" d="M1024 259.2c0.081-1.417 0.127-3.075 0.127-4.743 0-8.566-1.215-16.848-3.482-24.683l0.155 0.626c-10.008 119.73-109.103 213.265-230.287 214.399l-0.113 0.001c-18.479-0.609-36.070-2.909-53.074-6.757l1.874 0.357c2.116-8.824 3.33-18.955 3.33-29.37 0-2.050-0.047-4.090-0.14-6.117l0.010 0.287c-1.531-109.382-78.317-200.4-180.841-223.702l-1.559-0.298c17.579-105.836 105.798-186.382 213.843-191.977l0.557-0.023c-7.209-2.112-15.491-3.327-24.057-3.327-1.668 0-3.326 0.046-4.972 0.137l0.229-0.010c-0.214-0.001-0.466-0.001-0.719-0.001-96.752 0-182.029 49.128-232.246 123.8l-0.634 1.001c-51.435-75.374-136.75-124.331-233.528-124.8h-0.072c-1.417-0.081-3.075-0.127-4.743-0.127-8.566 0-16.848 1.215-24.683 3.482l0.626-0.155c107.683 7.879 194.719 87.279 214.171 190.541l0.229 1.459c-104.721 22.507-182.12 114.174-182.4 223.969v0.031c0 12.8 3.2 22.4 3.2 35.2-15.244 3.703-32.852 6.015-50.935 6.396l-0.265 0.004c-0.077 0-0.167 0-0.258 0-121.68 0-221.36-94.196-230.098-213.646l-0.044-0.754v28.8c0.308 149.632 119.709 271.274 268.437 275.192l0.363 0.008c-23.771 39.371-38.437 86.618-39.989 137.165l-0.011 0.435c0 0.171-0.001 0.374-0.001 0.576 0 103.203 57.68 192.934 142.561 238.714l1.439 0.71c-58.39-42.134-95.952-109.986-95.952-186.611 0-63.333 25.661-120.673 67.153-162.19l-0.001 0.001c41.863 41.556 99.532 67.237 163.2 67.237s121.337-25.682 163.214-67.251l-0.014 0.014c43.363 40.272 70.409 97.6 70.409 161.245 0 0.687-0.003 1.374-0.009 2.060l0.001-0.105c-0.247 76.277-37.78 143.736-95.32 185.134l-0.68 0.466c85.916-47.197 143.332-136.818 144-239.907v-0.093c0.035-1.557 0.055-3.392 0.055-5.232 0-49.116-14.334-94.884-39.046-133.35l0.59 0.982c148.784-5.409 267.683-125.984 270.396-274.94l0.004-0.26zM384 534.4c36.189-23.619 80.378-37.867 127.86-38.399l0.14-0.001c0.762-0.009 1.663-0.015 2.564-0.015 46.81 0 90.267 14.359 126.206 38.912l-0.771-0.497c-33.234 31.696-78.339 51.2-128 51.2s-94.766-19.504-128.074-51.27l0.074 0.070zM512 332.8c37.295 0.905 67.182 31.353 67.182 68.781 0 37.997-30.803 68.8-68.8 68.8s-68.8-30.803-68.8-68.8c0-0.556 0.007-1.11 0.020-1.663l-0.002 0.082c0.704-37.278 31.089-67.227 68.469-67.227 0.679 0 1.356 0.010 2.030 0.030l-0.099-0.002zM462.4 224c-4.406 88.064-57.623 162.716-132.981 197.807l-1.419 0.593c0-6.4-3.2-12.8-3.2-22.4 0.151-84.571 58.037-155.581 136.339-175.725l1.261-0.275zM696 422.4c-77.398-35.685-131.461-110.066-137.559-197.661l-0.041-0.739c79.818 20.995 138.178 91.333 140.793 175.713l0.007 0.287c-2.172 5.239-3.433 11.324-3.433 17.704 0 1.654 0.085 3.288 0.25 4.898l-0.017-0.202z" />
<glyph unicode="&#xe92e;" glyph-name="cap_env" data-tags="capenv" d="M800 552.32c-10.24 36.48 204.8 388.48 204.8 388.48s-508.8-300.8-533.76-288.64c-40.96 19.84 8.96 113.28 8.96 113.28l-360.96-305.28c-5.44-4.48-10.56-9.28-15.68-14.4-44.292-50.39-71.318-116.898-71.318-189.718 0-159.058 128.942-288 288-288 72.82 0 139.329 27.027 190.041 71.596l-0.323-0.278c12.16 12.16 32 38.72 32 38.72l339.2 451.84s-70.4-11.52-80.96 22.4zM451.52 97.6c-37.192-37.266-88.612-60.32-145.416-60.32-113.461 0-205.44 91.979-205.44 205.44s91.979 205.44 205.44 205.44c56.804 0 108.224-23.054 145.412-60.317l0.003-0.003c37.089-37.163 60.024-88.463 60.024-145.12s-22.935-107.958-60.028-145.123l0.003 0.003z" />
<glyph unicode="&#xe92f;" glyph-name="cap_geo" data-tags="capgeo" d="M975.040 512c-61.12-85.12-146.24-91.84-227.84-78.080-97.459 14.517-184.493 36.841-267.766 67.016l9.526-3.016c-50.768 19.508-109.501 30.807-170.872 30.807-70.968 0-138.407-15.109-199.275-42.286l3.107 1.239c-78.4-32.32-91.84-59.52-71.36-141.12 3.52-20.48 13.44-27.2 37.44-23.68 40.64 3.52 81.6 6.72 122.24 6.72 119.040-6.72 220.8-61.12 322.88-112.32 52.943-28.529 115.833-56.098 181.019-78.762l9.381-2.838c119.040-37.44 163.2-13.44 217.6 98.56 26.523 56.316 42.005 122.319 42.005 191.938 0 30.353-2.943 60.018-8.559 88.727l0.473-2.905zM125.12 665.92c162.88 85.12 326.4 78.080 489.6 10.24 91.84-37.44 183.68-74.88 285.44-61.12 33.92 3.52 47.68 10.24 27.2 44.16-51.934 93.985-131.65 167.198-227.967 209.671l-3.073 1.209c-33.92-57.92-88.32-57.92-149.76-51.2-44.16 10.24-88.32 20.48-132.48 27.2-84.8 17.92-158.080 10.24-222.080-57.92-32-37.12-66.88-78.080-104-122.24 4.879-3 10.551-5.323 16.595-6.653l0.365-0.067c7.54 0.776 14.385 3.175 20.371 6.84l-0.211-0.12zM332.48 74.56c-33.582-4.913-63.384-12.059-92.111-21.567l3.791 1.087c96-102.080 373.76-128 492.8-32l-217.6 32c-53.189 9.467-117.439 16.773-182.694 20.299l-4.186 0.181z" />
<glyph unicode="&#xe930;" glyph-name="cap_health" data-tags="caphealth" d="M789.76 354.24h-184v-184h-184v184h-187.52v184h184v184h184v-184h187.52zM834.88 864h-645.76c-51.356-0.181-92.939-41.764-93.12-93.103v-645.777c0.181-51.356 41.764-92.939 93.103-93.12h645.777c51.356 0.181 92.939 41.764 93.12 93.103v645.777c-0.181 51.356-41.764 92.939-93.103 93.12h-0.017z" />
<glyph unicode="&#xe932;" glyph-name="cap_infra" data-tags="capinfra" d="M29.76 643.52h444.48v-171.52h-444.48v171.52zM29.76 436.16h444.48v-171.52h-444.48v171.52zM29.76 228.48h444.48v-171.52h-444.48v171.52zM508.16 228.48h430.080v-171.52h-430.080v171.52zM517.12 637.12l428.16 30.4-16 171.52-428.16-30.4 16-171.52zM545.6 347.2l426.24-49.6 22.4 170.88-425.92 49.92-22.72-171.2z" />
<glyph unicode="&#xe933;" glyph-name="cap_other" data-tags="capOTHER" d="M231.36 938.88v-96h141.44v-160l-229.12 96-126.4-302.080 259.84-106.88 232.96-171.84 88-34.24 179.52 431.36-88 34.24-224 34.24v179.52h141.44v96h-375.68zM972.16 690.56l-108.16-45.76 34.24-88 106.88 45.76-32.96 88zM880.64 352l-38.080-88 129.92-53.44 34.24 88-126.080 53.44zM708.8 99.84l-88-35.84 45.76-106.88 88 34.24z" />
<glyph unicode="&#xe934;" glyph-name="cap_rescue" data-tags="caprescue" d="M955.2 656.96h-230.4v17.28c-0.359 42.27-34.53 76.441-76.766 76.8h-373.474c-42.27-0.359-76.441-34.53-76.8-76.766v-17.634h-125.76c-29.853-5.811-52.079-31.75-52.079-62.88s22.226-57.069 51.675-62.814l0.404-0.066h303.68l101.12-136-96-119.68c-9.15 5.519-20.175 8.833-31.964 8.96h-0.036c-38.527 0-69.76-31.233-69.76-69.76s31.233-69.76 69.76-69.76c38.527 0 69.76 31.233 69.76 69.76v0c-0.993 10.758-3.839 20.634-8.222 29.624l0.222-0.504 91.2 119.68 87.36-117.76c-4.84-9.174-7.681-20.050-7.681-31.59 0-0.144 0-0.288 0.001-0.432v0.022c0-38.527 31.233-69.76 69.76-69.76s69.76 31.233 69.76 69.76v0c-1.363 37.967-31.793 68.397-69.633 69.756l-0.127 0.004c-11.714-0.035-22.73-2.992-32.366-8.18l0.366 0.18-89.6 118.72 104.64 136h317.76c35.346 0 64 28.654 64 64v0c0.17 1.662 0.267 3.592 0.267 5.544 0 31.812-25.788 57.6-57.6 57.6-1.22 0-2.431-0.038-3.632-0.113l0.165 0.008zM504.96 430.080l-73.28 101.12h153.6zM682.88 656.96h-443.2v17.28c0 19.264 15.616 34.88 34.88 34.88v0h373.44c19.264 0 34.88-15.616 34.88-34.88v0z" />
<glyph unicode="&#xe935;" glyph-name="cap_safety" data-tags="capsafety" d="M424.96 640c-15.547 17.492-26.785 39.154-31.84 63.096l-0.16 0.904-27.2 100.48c-6.121 21.138-25.304 36.331-48.035 36.331-1.452 0-2.89-0.062-4.31-0.183l0.185 0.013h-141.44v-339.52l8-16.32c3.254-6.334 5.242-13.793 5.439-21.696l0.001-0.064v-40.64h312.64v92.16c0.022 0.779 0.034 1.695 0.034 2.615 0 25.008-9.224 47.862-24.456 65.345l0.102-0.119zM710.4 840.64c-23.929-0.581-44.068-16.171-51.404-37.688l-0.116-0.392-27.2-100.48c-5.88-24.701-17.008-46.231-32.189-64.231l0.189 0.231-49.6-55.68c-15.13-17.982-24.324-41.396-24.324-66.957 0-0.31 0.001-0.621 0.004-0.93v0.047-92.48h312.64v40.96c-0.114 1.136-0.178 2.455-0.178 3.789 0 7.574 2.088 14.66 5.72 20.713l-0.102-0.183 8 13.44v339.84zM525.44 370.56h312.64v-103.36h-312.64v103.36zM525.44 212.8h312.64v-157.76h-312.64v157.76zM185.92 370.56h312.64v-103.36h-312.64v103.36zM185.92 212.8h312.64v-157.76h-312.64v157.76z" />
<glyph unicode="&#xe936;" glyph-name="cap_security" data-tags="capsecurity" d="M944 824s-301.76-10.88-432 133.76c-120.32-148.48-432-133.76-432-133.76s4.8-288 0-454.080 432-431.68 432-431.68 436.8 267.52 432 432 0 453.76 0 453.76zM680.96 249.6l-168.96 122.88-168.96-122.88 64 198.72-168.64 122.88h209.6l64 198.72 64-198.72h208.96l-168.32-123.2z" />
<glyph unicode="&#xe937;" glyph-name="cap_transport" data-tags="captransport" d="M790.080 46.4l-225.6 889.6h-108.16l-225.6-889.6-88.32-29.44v-78.4h739.2v78.4zM335.36 216.32l45.76 179.84h258.88l45.76-179.84zM472.64 756.16h75.2l46.080-180.16h-167.040z" />
</font>
</defs>
</svg>
